<?xml version="1.0" encoding="utf-8"?>
<!-- Generator: Adobe Illustrator 27.0.0, SVG Export Plug-In . SVG Version: 6.00 Build 0)  -->
<svg version="1.1" id="Layer_1" xmlns="http://www.w3.org/2000/svg" xmlns:xlink="http://www.w3.org/1999/xlink" x="0px" y="0px"
	 viewBox="0 0 225.67 192.83" style="enable-background:new 0 0 225.67 192.83;" xml:space="preserve">
<style type="text/css">
	.st0{fill:#6D3E98;}
	.st1{fill:#4E2B84;}
	.st2{fill:#785CA7;}
</style>
<g>
	<polygon class="st0" points="7.33,40.18 0,54.78 16.81,51.39 	"/>
	<polygon class="st1" points="30.04,33.19 36.55,74.75 7.33,40.18 	"/>
	<polygon class="st2" points="75.92,47.38 36.55,74.75 30.04,33.19 	"/>
	<polygon class="st0" points="119.6,17.01 138.21,96.09 36.55,74.75 	"/>
	<polygon class="st1" points="138.21,96.09 119.6,17.01 157.19,46.93 	"/>
	<polygon class="st2" points="201.39,0 157.19,46.93 119.6,17.01 	"/>
	<polygon class="st1" points="46.79,104.32 138.21,96.09 36.55,74.75 	"/>
	<polygon class="st2" points="131.6,146.97 46.79,104.32 138.21,96.09 	"/>
	<polygon class="st0" points="182.73,145.31 131.6,146.97 138.21,96.09 	"/>
	<polygon class="st1" points="182.73,145.31 225.67,192.83 131.6,146.97 	"/>
</g>
</svg>
