<?xml version="1.0" encoding="utf-8"?>
<!-- Generator: Adobe Illustrator 27.0.0, SVG Export Plug-In . SVG Version: 6.00 Build 0)  -->
<svg version="1.1" id="Layer_1" xmlns="http://www.w3.org/2000/svg" xmlns:xlink="http://www.w3.org/1999/xlink" x="0px" y="0px"
	 viewBox="0 0 172.99 52.45" style="enable-background:new 0 0 172.99 52.45;" xml:space="preserve">
<style type="text/css">
	.st0{display:none;}
	.st1{display:inline;fill:#6D3E98;}
	.st2{display:inline;fill:#4E2B84;}
	.st3{display:inline;fill:#785CA7;}
	.st4{fill:#4E2B84;}
</style>
<g>
	<g class="st0">
	</g>
	<g>
		<path class="st4" d="M1.24,7.31C0.41,6.48,0,5.47,0,4.27c0-1.19,0.41-2.2,1.24-3.03S3.08,0,4.27,0C5.42,0,6.4,0.41,7.2,1.24
			c0.8,0.83,1.21,1.84,1.21,3.03c0,1.2-0.4,2.21-1.21,3.03C6.4,8.13,5.42,8.55,4.27,8.55C3.08,8.55,2.07,8.13,1.24,7.31z
			 M7.31,14.68v37.77H1.03V14.68H7.31z"/>
		<path class="st4" d="M51,18.16c2.85,2.78,4.27,6.79,4.27,12.03v22.26h-6.2V31.08c0-3.77-0.94-6.65-2.83-8.65
			c-1.88-2-4.46-3-7.72-3c-3.31,0-5.94,1.03-7.89,3.1c-1.95,2.07-2.93,5.08-2.93,9.03v20.88h-6.27V14.68h6.27v5.38
			c1.24-1.93,2.93-3.42,5.07-4.48c2.14-1.06,4.49-1.59,7.06-1.59C44.43,13.99,48.15,15.38,51,18.16z"/>
		<path class="st4" d="M98.55,18.16c2.85,2.78,4.27,6.79,4.27,12.03v22.26h-6.2V31.08c0-3.77-0.94-6.65-2.83-8.65
			c-1.88-2-4.46-3-7.72-3c-3.31,0-5.94,1.03-7.89,3.1c-1.95,2.07-2.93,5.08-2.93,9.03v20.88h-6.27V14.68h6.27v5.38
			c1.24-1.93,2.93-3.42,5.07-4.48c2.14-1.06,4.49-1.59,7.06-1.59C91.98,13.99,95.7,15.38,98.55,18.16z"/>
		<path class="st4" d="M137.63,52.45l-14.82-16.68v16.68h-6.27v-51h6.27v29.98l14.54-16.75h8.75L128.33,33.5l17.85,18.95H137.63z"/>
		<path class="st4" d="M163.13,19.85v22.26c0,1.84,0.39,3.14,1.17,3.89c0.78,0.76,2.14,1.14,4.07,1.14h4.62v5.31h-5.65
			c-3.49,0-6.11-0.8-7.86-2.41c-1.75-1.61-2.62-4.25-2.62-7.93V19.85h-4.89v-5.17h4.89V5.17h6.27v9.51h9.86v5.17H163.13z"/>
	</g>
	<g class="st0">
		<path class="st2" d="M6.78,4.41v48.04H0.51V4.41H6.78z"/>
		<path class="st2" d="M50.48,18.16c2.85,2.78,4.27,6.79,4.27,12.03v22.26h-6.2V31.08c0-3.77-0.94-6.65-2.83-8.65
			c-1.88-2-4.46-3-7.72-3c-3.31,0-5.94,1.03-7.89,3.1c-1.95,2.07-2.93,5.08-2.93,9.03v20.88h-6.27V14.68h6.27v5.38
			c1.24-1.93,2.93-3.42,5.07-4.48c2.14-1.06,4.49-1.59,7.06-1.59C43.91,13.99,47.63,15.38,50.48,18.16z"/>
		<path class="st2" d="M98.03,18.16c2.85,2.78,4.27,6.79,4.27,12.03v22.26h-6.2V31.08c0-3.77-0.94-6.65-2.83-8.65
			c-1.88-2-4.46-3-7.72-3c-3.31,0-5.94,1.03-7.89,3.1c-1.95,2.07-2.93,5.08-2.93,9.03v20.88h-6.27V14.68h6.27v5.38
			c1.24-1.93,2.93-3.42,5.07-4.48c2.14-1.06,4.49-1.59,7.06-1.59C91.46,13.99,95.18,15.38,98.03,18.16z"/>
		<path class="st2" d="M137.11,52.45l-14.82-16.68v16.68h-6.27v-51h6.27v29.98l14.54-16.75h8.75L127.8,33.5l17.85,18.95H137.11z"/>
		<path class="st2" d="M162.61,19.85v22.26c0,1.84,0.39,3.14,1.17,3.89c0.78,0.76,2.14,1.14,4.07,1.14h4.62v5.31h-5.65
			c-3.49,0-6.11-0.8-7.86-2.41c-1.75-1.61-2.62-4.25-2.62-7.93V19.85h-4.89v-5.17h4.89V5.17h6.27v9.51h9.86v5.17H162.61z"/>
	</g>
</g>
</svg>
