<?xml version="1.0" encoding="UTF-8"?>
<svg id="Layer_2" data-name="Layer 2" xmlns="http://www.w3.org/2000/svg" viewBox="0 0 387.01 332.09">
  <defs>
    <style>
      .cls-1 {
        fill: #fff;
      }
    </style>
  </defs>
  <g id="Layer_1-2" data-name="Layer 1">
    <path class="cls-1" d="M80.37,178.29c-.31-1.37-.5-2.78-.96-4.11-4.31-12.54-8.67-25.07-13.01-37.6-.58-1.66-1.21-3.24-2.69-4.42-.68-.54-1.2-1.55-1.35-2.43-.29-1.66-1.05-2.96-2.11-4.2-7.97-9.38-15.91-18.79-23.87-28.19-.52-.61-1.08-1.18-1.61-1.78-.77-.87-1.64-1.45-2.9-1.4-.78,.03-1.79,.08-2.32-.35-2.19-1.76-4.52-1.09-6.84-.64-3.3,.64-6.59,1.28-9.87,2-2.32,.51-4.48,1.07-6.14,3.21-1.55,1.99-4.36,1.61-5.84-.27-1.55-1.96-1.01-4.82,1.49-5.99,1.76-.82,2.77-2,3.56-3.63,1.46-3.02,3.02-5.99,4.51-9,1.26-2.55,2.64-4.99,2.43-8.1-.16-2.33,1.85-3.97,4.2-3.36,2.87,.74,5.35-.05,7.94-.85,7.33-2.26,14.66-4.5,21.99-6.75,1.83-.56,3.43-1.21,4.7-2.95,1.77-2.39,4.55-2.52,6.03-.14,1.48,2.38,3.62,3.01,5.87,3.71,12.82,3.99,25.65,7.94,38.47,11.89,7.48,2.31,14.98,4.58,22.45,6.92,1.86,.58,3.63,1.24,5.5,0,.48-.32,1.29-.43,1.85-.28,2.51,.68,4.28-.72,6.12-1.99,20.35-14.14,40.7-28.29,61.06-42.42,1.45-1.01,2.68-2.07,3.52-3.77,1.2-2.44,2.53-3.01,5.09-2.14,1.8,.61,3.41,.5,5.15,.13,32.54-6.79,65.08-13.56,97.62-20.34,7.67-1.6,15.33-3.21,23-4.76,2.51-.51,4.84-.94,6.69-3.18,1.56-1.89,4.35-1.24,5.74,.83,1.35,2.01,.66,4.64-1.51,5.7-.42,.21-.9,.4-1.37,.42-1.97,.07-3.15,1.4-4.38,2.67-2.34,2.41-4.7,4.8-7,7.24-18.43,19.54-36.86,39.09-55.28,58.64-1.84,1.95-3.97,3.67-3.81,6.86,.04,.86-.97,2.17-1.84,2.59-2.15,1.04-2.82,2.95-3.57,4.87-2.44,6.25-4.84,12.52-7.26,18.78-6.04,15.65-12.08,31.31-18.12,46.96-2.31,3.4-1.33,7.05-.64,10.6,.22,1.14,1.21,2.22,2.04,3.15,4.56,5.15,9.16,10.25,13.77,15.35,16.63,18.38,33.26,36.75,49.91,55.12,1.91,2.1,3.52,4.54,6.87,4.74,1.3,.08,2.37,1.34,2.37,2.69,0,3.07,1.97,4.94,3.77,6.94,8.88,9.87,17.76,19.73,26.66,29.57,10.83,11.98,21.67,23.95,32.52,35.92,1.49,1.64,2.78,3.51,5.33,3.75,.66,.06,1.36,.81,1.85,1.41,1.28,1.56,1.04,3.89-.42,5.2-1.54,1.39-4.25,1.23-5.62-.34-.21-.24-.5-.49-.55-.77-.5-2.79-2.8-3.65-4.96-4.7-19.12-9.3-38.23-18.61-57.35-27.92-2.44-1.19-4.82-2.44-7.74-1.97-1.55,.25-2.91-.64-3.51-2.03-.85-1.98-2.55-2.76-4.27-3.59-22.43-10.91-44.86-21.81-67.29-32.7-1.29-.63-2.6-1.22-3.91-1.82-1.04-.48-2.02-.52-3.21-.25-3.65,.84-4.84,.41-6-2.81-.72-1.99-2.15-2.66-3.68-3.43-10.27-5.19-20.55-10.37-30.84-15.53-31-15.57-62-31.14-93-46.7-1.71-.86-3.45-1.67-5.18-2.51-1.03-.5-2.03-.58-3.22-.39-4.26,.66-5.67-.79-5.06-5.38Zm-10.51-49.35c2.7,.7,4.53,1.24,6.38,1.63,13.59,2.89,27.19,5.76,40.79,8.61,28.14,5.91,56.28,11.81,84.42,17.71,7.82,1.64,15.63,3.29,23.46,4.89,1.32,.27,2.69,.79,4.47-.15-1.12-1.03-1.97-1.92-2.92-2.67-5.27-4.16-10.56-8.29-15.85-12.42-8.69-6.79-17.39-13.57-26.09-20.35-1.63-1.27-3.15-2.38-5.6-1.94-2.15,.38-3.47-1.03-4.07-3.23-.25-.91-.33-1.85-.47-2.67-.76-.63-1.36-1.16-1.98-1.66-11.21-8.76-22.41-17.52-33.63-26.28-1.01-.79-2.03-1.56-3.09-2.27-.52-.34-1.13-.72-1.72-.74-3.01-.13-6.09-.53-8.58,1.88-.68,.66-1.57,1.1-2.36,1.64-15.1,10.49-30.19,20.97-45.28,31.47-1.97,1.37-3.95,2.72-5.86,4.16-.58,.44-.97,1.13-2.01,2.38ZM209.02,37.09c-.2,.76-.49,1.23-.4,1.6,9.36,39.97,18.75,79.93,28.16,119.89,.05,.22,.48,.36,.9,.65,.32-.52,.72-.99,.93-1.54,9.23-23.66,18.44-47.32,27.46-70.49-.62-2.25-.97-3.95-1.57-5.57-.31-.83-.9-1.68-1.59-2.24-6.48-5.21-12.99-10.38-19.55-15.49-.96-.75-2.2-1.26-3.39-1.58-1.67-.45-3.01-1.21-3.56-2.86-.49-1.47-1.5-2.41-2.63-3.31-7.15-5.65-14.28-11.32-21.45-16.96-.97-.76-2.08-1.34-3.3-2.12Zm15.47,210.44c.49-1.65,.99-2.79,1.15-3.97,1.37-10.28,2.68-20.56,4.01-30.85,1.48-11.39,2.98-22.78,4.45-34.17,.33-2.53,.63-5.07,.83-7.61,.12-1.44-.98-2.84-2.37-3.18-.61-.15-1.26-.18-1.89-.15-2.71,.14-5.43,.25-8.13,.49-17.49,1.55-34.98,3.12-52.47,4.7-1.43,.13-2.86,.31-4.28,.52-1.36,.2-2.71,.46-4.02,.69,0,.65-.13,1.07,.02,1.26,19.25,23.65,39.85,46.13,59.66,69.29,.8,.93,1.76,1.73,3.04,2.97ZM88.84,180.76c2.92,2.11,5.52,3.29,8.05,4.56,31.1,15.65,62.21,31.29,93.32,46.93,7.85,3.95,15.7,7.88,23.57,11.79,1.22,.6,2.4,1.53,4.13,1.33-.21-.67-.23-1.18-.48-1.48-19.01-22.2-38.25-44.19-57.48-66.27-3.3,.52-5.81-.62-7.48-2.87-5.55-.05-59.03,4.93-63.63,6.01Zm144.92-21.73c.21-.36,.3-.48,.35-.62,.06-.14,.12-.31,.1-.45-.22-1.25-.42-2.51-.71-3.75-9.01-38.02-18.04-76.04-27.07-114.06-.03-.14-.15-.29-.27-.38-.1-.07-.26-.06-.6-.12-1.13,1.3-1.34,3.09-1.85,4.7-3.9,12.32-7.74,24.66-11.61,36.99-3.15,10.05-6.33,20.08-9.44,30.14-.5,1.62-.91,3.15-.48,5.08,.58,2.6,1.97,4.22,3.9,5.72,14.98,11.69,29.94,23.4,44.92,35.08,.84,.66,1.83,1.13,2.76,1.69Zm-30.65-122.95c-1.55-.17-2.58,.97-3.71,1.75-20.09,13.93-40.16,27.89-60.23,41.84-.79,.55-1.58,1.09-2.3,1.72-1.4,1.23-1.43,2.75-.06,4.13,.67,.68,1.41,1.3,2.17,1.89,11.7,9.17,23.4,18.32,35.11,27.48,.5,.39,1.01,.8,1.57,1.09,1.74,.91,3.47,.22,4.2-1.65,.35-.89,.62-1.81,.91-2.73,5.15-16.45,10.31-32.9,15.44-49.36,2.33-7.47,4.63-14.94,6.92-22.42,.36-1.19,1.02-2.4,0-3.74Zm33,18.87c2.06-.2,3.59-.74,4.87-.39,2.3,.64,4.05-.23,5.89-1.21,7.06-3.74,14.13-7.47,21.18-11.22,20.17-10.74,40.34-21.48,60.51-32.23,1.22-.65,2.38-1.42,3.57-2.13-3.65,.07-7.06,.74-10.46,1.44-30.04,6.23-60.08,12.46-90.12,18.69-6.1,1.27-12.2,2.54-18.3,3.83-1.06,.23-2.24,.36-2.63,1.82,.18,.35,.29,.88,.62,1.15,8.29,6.77,16.6,13.52,24.88,20.26Zm35.51,23.38c.55-.62,1.37-1.6,2.24-2.53,15.13-16.06,30.27-32.1,45.38-48.17,4.49-4.77,8.93-9.6,13.35-14.44,.55-.61,1.6-1.15,.94-2.46-1.67-.03-2.94,1.03-4.3,1.74-26.99,14.26-53.96,28.55-80.94,42.83-.85,.45-1.72,.87-2.51,1.4-2.01,1.36-2.21,3.58-.47,5.24,.92,.88,1.93,1.68,2.92,2.48,4.87,3.89,9.83,7.67,14.59,11.69,2.35,1.99,4.74,3.17,8.79,2.2Zm-203.07,54.89c0,.88-.12,1.38,.02,1.78,4.57,13.42,9.16,26.84,13.72,40.17,1.01,.4,1.86,.53,2.45,1,2.08,1.67,4.47,1.47,6.86,1.31,1.43-.1,2.86-.25,4.29-.38,5.08-.48,10.16-.98,15.25-1.43,8.74-.77,17.49-1.5,26.23-2.27,3.5-.31,6.99-.65,10.47-1.07,.81-.1,1.95,.07,2.17-1.21-4.21-2.74-76.98-36.68-81.47-37.91Zm12.62,1.01c-.12,.31-.25,.63-.37,.94,1.38,.72,2.74,1.5,4.15,2.16,21.08,9.93,42.16,19.86,63.25,29.77,3,1.41,5.86,3.32,9.46,2.78,.56-.08,1.18,.42,1.8,.53,1.24,.22,2.49,.51,3.73,.48,2.39-.06,4.78-.29,7.17-.5,8.74-.79,17.49-1.61,26.23-2.41,8.27-.76,16.54-1.49,24.8-2.28,1.03-.1,2.03-.53,3.04-.8-47.76-10.69-95.51-20.71-143.26-30.67Zm152.67,118.29c-.13,.35-.26,.7-.39,1.04,4.65,2.65,9.52,4.9,14.32,7.27,4.87,2.4,9.76,4.75,14.64,7.12,4.74,2.31,9.47,4.62,14.2,6.93,4.88,2.39,9.73,4.81,14.62,7.16,4.87,2.34,9.64,4.91,14.31,6.83,2.91-.7,3.52-2.51,3.62-4.79,.39-8.77,.85-17.54,1.28-26.31,.03-.64,.07-1.28,.06-1.91-.04-3.86-1.7-5.71-5.45-5.61-9.58,.25-19.16,.65-28.73,.96-1.36,.04-2.3,.61-3.3,1.56-2.42,2.31-4.07,2.24-6.64,.11-.48-.4-.92-.86-1.52-1.43-10.3,.35-20.66,.71-31.01,1.06Zm3.54-79.5c-.67,4.84-1.35,9.55-1.97,14.28-1.83,13.92-3.63,27.85-5.45,41.77-.7,5.38-1.45,10.75-2.08,16.14-.42,3.58,.59,4.78,4.11,4.83,2.55,.04,5.1-.22,7.66-.29,7.35-.21,14.69-.37,22.04-.59,1.56-.05,3.24,.22,4.56-1.36-.03-.49,.08-1.17-.13-1.72-9.2-24.15-18.43-48.29-27.68-72.43-.08-.22-.5-.31-1.05-.63Zm4.78,1.11c.31,2.95,1.28,4.97,2.05,7.02,7.66,20.31,15.36,40.61,23.05,60.91,.34,.9,.64,1.82,1.07,2.66,.28,.54,.68,1.21,1.19,1.42,2.57,1.1,4.84,2.69,8.01,2.49,9.56-.59,19.15-.75,28.73-1.11,.58-.02,1.31,.11,1.78-.95-.18-.34-.37-.92-.72-1.37-6.23-7.78-61.43-68.11-65.16-71.08Zm71.32,79.4c-.2,1.45-.38,2.38-.45,3.32-.56,8.61-1.1,17.22-1.66,25.84-.17,2.57-.4,5.12,1.65,7.19,.3,.3,.37,.88,.43,1.35,.21,1.45,1.23,2.16,2.41,2.75,1.57,.79,3.13,1.61,4.71,2.38,16.38,7.98,32.76,15.96,49.14,23.93,1.72,.84,3.45,1.69,5.21,2.43,.57,.24,1.28,.18,2.74,.35-1.81-2.07-3.04-3.52-4.32-4.93-12.86-14.24-25.72-28.48-38.59-42.7-5.58-6.17-11.16-12.33-16.79-18.44-1.14-1.24-2.12-2.78-4.48-3.46ZM126.67,84.88c-1.51-.24-1.98-.37-2.44-.38-16.59-.39-33.18-.8-49.77-1.12-5.94-.12-6.6,.6-6.9,6.48-.02,.32-.03,.64-.04,.96-.3,9.72-.63,19.44-.85,29.17-.04,1.67-.93,3.85,.81,4.91,2.04,1.25,3.5-.88,4.96-1.88,10.66-7.29,21.26-14.69,31.86-22.06,6.02-4.19,12.04-8.38,18.04-12.61,1.26-.89,2.42-1.93,4.32-3.46Zm-105.2-10.95c2.05,4.56,4.99,7.88,7.93,11.2,.48,.55,1.31,.92,2.05,1.08,2.14,.47,3.48,1.71,3.61,3.87,.11,1.75,.98,2.99,2.01,4.22,3.18,3.79,6.35,7.58,9.55,11.36,4.94,5.85,9.88,11.7,14.86,17.52,.54,.63,.92,1.84,2.5,1.18,.1-.6,.31-1.35,.33-2.1,.35-11.94,.67-23.88,.99-35.69-.94-.84-1.83-1.35-2.31-2.12-1.3-2.08-3.18-2.78-5.51-3.25-9.85-1.97-19.66-4.15-29.49-6.21-2.15-.45-4.35-.71-6.52-1.06Zm36.53-11.15c1.31,3.64,3.17,6.44,4.68,9.41,1.38,2.71,2.92,5.09,5.74,6.75,1.54,.9,2.81,1.82,4.66,1.85,14.55,.26,29.1,.57,43.64,.83,.62,.01,1.59,.4,1.95-1.07-19.6-6-39.13-11.98-58.67-17.94-.41-.12-.91,.06-2.01,.15Zm-7.66-.71c-.79,.19-1.87,.42-2.94,.71-1.08,.29-2.13,.64-3.2,.97-.91,.28-1.83,.55-2.74,.83-1.07,.33-2.13,.66-3.2,.99-1.06,.33-2.13,.66-3.19,.99-1.07,.33-2.13,.65-3.2,.98-.91,.28-1.83,.55-2.74,.83-1.07,.33-2.16,.59-3.18,1.02-.9,.38-2.12,.35-2.85,1.73,1.04,.33,1.75,.63,2.49,.79,9.18,1.99,18.37,3.96,27.56,5.92,2.65,.57,5.29,1.14,7.95,1.62,1.28,.23,2.14-.94,1.55-2.12-1.29-2.56-2.77-5.02-4.03-7.59-1.72-3.54-3.95-6.48-8.27-7.66ZM6.73,92.53c.87,.45,1.15,.73,1.42,.72,6.09-.32,11.93-2,17.86-3.23,1.42-.3,2.03-2.33,1.07-3.51-2.63-3.21-5.28-6.4-8.1-9.45-1.8-1.96-3.72-1.64-4.98,.71-1.81,3.37-3.49,6.82-5.19,10.24-.7,1.4-1.31,2.85-2.07,4.52Z"/>
  </g>
</svg>