<?xml version="1.0" encoding="utf-8"?>
<!-- Generator: Adobe Illustrator 27.0.0, SVG Export Plug-In . SVG Version: 6.00 Build 0)  -->
<svg version="1.1" id="Layer_1" xmlns="http://www.w3.org/2000/svg" xmlns:xlink="http://www.w3.org/1999/xlink" x="0px" y="0px"
	 viewBox="0 0 358.85 192.83" style="enable-background:new 0 0 358.85 192.83;" xml:space="preserve">
<style type="text/css">
	.st0{fill:#6D3E98;}
	.st1{fill:#4E2B84;}
	.st2{fill:#785CA7;}
	.st3{display:none;}
	.st4{display:inline;fill:#4E2B84;}
</style>
<g>
	<g>
		<polygon class="st0" points="7.33,40.18 0,54.78 16.81,51.39 		"/>
		<polygon class="st1" points="30.04,33.19 36.55,74.75 7.33,40.18 		"/>
		<polygon class="st2" points="75.92,47.38 36.55,74.75 30.04,33.19 		"/>
		<polygon class="st0" points="119.6,17.01 138.21,96.09 36.55,74.75 		"/>
		<polygon class="st1" points="138.21,96.09 119.6,17.01 157.19,46.93 		"/>
		<polygon class="st2" points="201.39,0 157.19,46.94 119.6,17.01 		"/>
		<polygon class="st1" points="46.79,104.32 138.21,96.09 36.55,74.75 		"/>
		<polygon class="st2" points="131.6,146.97 46.79,104.32 138.21,96.09 		"/>
		<polygon class="st0" points="182.73,145.31 131.6,146.97 138.21,96.09 		"/>
		<polygon class="st1" points="182.73,145.31 225.67,192.83 131.6,146.97 		"/>
	</g>
	<g>
		<path class="st1" d="M187.11,63.86c-0.83-0.83-1.24-1.84-1.24-3.03c0-1.19,0.41-2.2,1.24-3.03s1.84-1.24,3.03-1.24
			c1.15,0,2.12,0.41,2.93,1.24c0.8,0.83,1.21,1.84,1.21,3.03c0,1.2-0.4,2.21-1.21,3.03c-0.8,0.83-1.78,1.24-2.93,1.24
			C188.94,65.1,187.93,64.68,187.11,63.86z M193.17,71.23V109h-6.27V71.23H193.17z"/>
		<path class="st1" d="M236.86,74.71c2.85,2.78,4.27,6.79,4.27,12.03V109h-6.2V87.63c0-3.77-0.94-6.65-2.83-8.65
			c-1.88-2-4.46-3-7.72-3c-3.31,0-5.94,1.03-7.89,3.1c-1.95,2.07-2.93,5.08-2.93,9.03V109h-6.27V71.23h6.27v5.38
			c1.24-1.93,2.93-3.42,5.07-4.48c2.14-1.06,4.49-1.59,7.06-1.59C230.29,70.54,234.02,71.93,236.86,74.71z"/>
		<path class="st1" d="M284.42,74.71c2.85,2.78,4.27,6.79,4.27,12.03V109h-6.2V87.63c0-3.77-0.94-6.65-2.83-8.65
			c-1.88-2-4.46-3-7.72-3c-3.31,0-5.94,1.03-7.89,3.1c-1.95,2.07-2.93,5.08-2.93,9.03V109h-6.27V71.23h6.27v5.38
			c1.24-1.93,2.93-3.42,5.07-4.48c2.14-1.06,4.49-1.59,7.06-1.59C277.85,70.54,281.57,71.93,284.42,74.71z"/>
		<path class="st1" d="M323.5,109l-14.82-16.68V109h-6.27V58h6.27v29.98l14.54-16.75h8.75l-17.78,18.81L332.04,109H323.5z"/>
		<path class="st1" d="M349,76.4v22.26c0,1.84,0.39,3.14,1.17,3.89c0.78,0.76,2.14,1.14,4.07,1.14h4.62V109h-5.65
			c-3.49,0-6.11-0.8-7.86-2.41c-1.75-1.61-2.62-4.25-2.62-7.93V76.4h-4.89v-5.17h4.89v-9.51H349v9.51h9.86v5.17H349z"/>
	</g>
	<g class="st3">
		<path class="st4" d="M192.65,60.96V109h-6.27V60.96H192.65z"/>
		<path class="st4" d="M236.34,74.71c2.85,2.78,4.27,6.79,4.27,12.03V109h-6.2V87.63c0-3.77-0.94-6.65-2.83-8.65
			c-1.88-2-4.46-3-7.72-3c-3.31,0-5.94,1.03-7.89,3.1c-1.95,2.07-2.93,5.08-2.93,9.03V109h-6.27V71.23h6.27v5.38
			c1.24-1.93,2.93-3.42,5.07-4.48c2.14-1.06,4.49-1.59,7.06-1.59C229.77,70.54,233.49,71.93,236.34,74.71z"/>
		<path class="st4" d="M283.9,74.71c2.85,2.78,4.27,6.79,4.27,12.03V109h-6.2V87.63c0-3.77-0.94-6.65-2.83-8.65
			c-1.88-2-4.46-3-7.72-3c-3.31,0-5.94,1.03-7.89,3.1c-1.95,2.07-2.93,5.08-2.93,9.03V109h-6.27V71.23h6.27v5.38
			c1.24-1.93,2.93-3.42,5.07-4.48c2.14-1.06,4.49-1.59,7.06-1.59C277.33,70.54,281.05,71.93,283.9,74.71z"/>
		<path class="st4" d="M322.97,109l-14.82-16.68V109h-6.27V58h6.27v29.98l14.54-16.75h8.75l-17.78,18.81L331.52,109H322.97z"/>
		<path class="st4" d="M348.47,76.4v22.26c0,1.84,0.39,3.14,1.17,3.89c0.78,0.76,2.14,1.14,4.07,1.14h4.62V109h-5.65
			c-3.49,0-6.11-0.8-7.86-2.41c-1.75-1.61-2.62-4.25-2.62-7.93V76.4h-4.89v-5.17h4.89v-9.51h6.27v9.51h9.86v5.17H348.47z"/>
	</g>
</g>
</svg>
