<?xml version="1.0" encoding="utf-8"?>
<!-- Generator: Adobe Illustrator 27.0.0, SVG Export Plug-In . SVG Version: 6.00 Build 0)  -->
<svg version="1.1" id="Layer_1" xmlns="http://www.w3.org/2000/svg" xmlns:xlink="http://www.w3.org/1999/xlink" x="0px" y="0px"
	 viewBox="0 0 188.83 69.39" style="enable-background:new 0 0 188.83 69.39;" xml:space="preserve">
<style type="text/css">
	.st0{display:none;}
	.st1{display:inline;fill:#6D3E98;}
	.st2{display:inline;fill:#4E2B84;}
	.st3{display:inline;fill:#785CA7;}
	.st4{fill:#4E2B84;}
</style>
<g>
	<g class="st0">
		<polygon class="st1" points="12.71,95.2 -38.42,96.85 -31.81,45.97 		"/>
	</g>
	<g>
		<path class="st4" d="M17.09,13.74c-0.83-0.83-1.24-1.84-1.24-3.03c0-1.19,0.41-2.2,1.24-3.03s1.84-1.24,3.03-1.24
			c1.15,0,2.12,0.41,2.93,1.24c0.8,0.83,1.21,1.84,1.21,3.03c0,1.2-0.4,2.21-1.21,3.03c-0.8,0.83-1.78,1.24-2.93,1.24
			C18.92,14.98,17.91,14.57,17.09,13.74z M23.15,21.11v37.77h-6.27V21.11H23.15z"/>
		<path class="st4" d="M66.84,24.59c2.85,2.78,4.27,6.79,4.27,12.03v22.26h-6.2V37.52c0-3.77-0.94-6.65-2.83-8.65
			c-1.88-2-4.46-3-7.72-3c-3.31,0-5.94,1.03-7.89,3.1c-1.95,2.07-2.93,5.08-2.93,9.03v20.88h-6.27V21.11h6.27v5.38
			c1.24-1.93,2.93-3.42,5.07-4.48c2.14-1.06,4.49-1.59,7.06-1.59C60.27,20.42,64,21.81,66.84,24.59z"/>
		<path class="st4" d="M114.4,24.59c2.85,2.78,4.27,6.79,4.27,12.03v22.26h-6.2V37.52c0-3.77-0.94-6.65-2.83-8.65
			c-1.88-2-4.46-3-7.72-3c-3.31,0-5.94,1.03-7.89,3.1c-1.95,2.07-2.93,5.08-2.93,9.03v20.88h-6.27V21.11h6.27v5.38
			c1.24-1.93,2.93-3.42,5.07-4.48c2.14-1.06,4.49-1.59,7.06-1.59C107.83,20.42,111.55,21.81,114.4,24.59z"/>
		<path class="st4" d="M153.48,58.88L138.66,42.2v16.68h-6.27v-51h6.27v29.98l14.54-16.75h8.75l-17.78,18.81l17.85,18.95H153.48z"/>
		<path class="st4" d="M178.98,26.28v22.26c0,1.84,0.39,3.14,1.17,3.89c0.78,0.76,2.14,1.14,4.07,1.14h4.62v5.31h-5.65
			c-3.49,0-6.11-0.8-7.86-2.41c-1.75-1.61-2.62-4.25-2.62-7.93V26.28h-4.89v-5.17h4.89V11.6h6.27v9.51h9.86v5.17H178.98z"/>
	</g>
	<g class="st0">
		<path class="st2" d="M22.63,10.84v48.04h-6.27V10.84H22.63z"/>
		<path class="st2" d="M66.32,24.59c2.85,2.78,4.27,6.79,4.27,12.03v22.26h-6.2V37.52c0-3.77-0.94-6.65-2.83-8.65
			c-1.88-2-4.46-3-7.72-3c-3.31,0-5.94,1.03-7.89,3.1C44,31.04,43.03,34.05,43.03,38v20.88h-6.27V21.11h6.27v5.38
			c1.24-1.93,2.93-3.42,5.07-4.48c2.14-1.06,4.49-1.59,7.06-1.59C59.75,20.42,63.47,21.81,66.32,24.59z"/>
		<path class="st2" d="M113.88,24.59c2.85,2.78,4.27,6.79,4.27,12.03v22.26h-6.2V37.52c0-3.77-0.94-6.65-2.83-8.65
			c-1.88-2-4.46-3-7.72-3c-3.31,0-5.94,1.03-7.89,3.1c-1.95,2.07-2.93,5.08-2.93,9.03v20.88h-6.27V21.11h6.27v5.38
			c1.24-1.93,2.93-3.42,5.07-4.48c2.14-1.06,4.49-1.59,7.06-1.59C107.31,20.42,111.03,21.81,113.88,24.59z"/>
		<path class="st2" d="M152.95,58.88L138.14,42.2v16.68h-6.27v-51h6.27v29.98l14.54-16.75h8.75l-17.78,18.81l17.85,18.95H152.95z"/>
		<path class="st2" d="M178.45,26.28v22.26c0,1.84,0.39,3.14,1.17,3.89c0.78,0.76,2.14,1.14,4.07,1.14h4.62v5.31h-5.65
			c-3.49,0-6.11-0.8-7.86-2.41c-1.75-1.61-2.62-4.25-2.62-7.93V26.28h-4.89v-5.17h4.89V11.6h6.27v9.51h9.86v5.17H178.45z"/>
	</g>
</g>
</svg>
